<svg width="26" height="26" viewBox="0 0 26 26" fill="none" xmlns="http://www.w3.org/2000/svg">
<g id="Saturated Fat Icon">
<g id="Group">
<g id="Group_2">
<g id="Group_3">
<path id="Vector" d="M8.34961 17.645C8.34961 14.855 12.9996 10.205 12.9996 10.205C12.9996 10.205 17.6496 14.855 17.6496 17.645C17.6496 20.621 15.2316 22.295 12.9996 22.295C10.7676 22.295 8.34961 20.621 8.34961 17.645Z" stroke="black" stroke-width="2.232" stroke-miterlimit="10" stroke-linecap="round"/>
</g>
<g id="Group_4">
<path id="Vector_2" d="M17.6387 8.35996C17.6387 6.59296 20.4287 3.70996 20.4287 3.70996C20.4287 3.70996 23.2187 6.59296 23.2187 8.35996C23.2187 10.127 21.8237 11.15 20.4287 11.15C19.0337 11.15 17.6387 10.127 17.6387 8.35996Z" stroke="black" stroke-width="2.232" stroke-miterlimit="10" stroke-linecap="round"/>
</g>
<g id="Group_5">
<path id="Vector_3" d="M2.7793 8.35996C2.7793 6.59296 5.5693 3.70996 5.5693 3.70996C5.5693 3.70996 8.3593 6.59296 8.3593 8.35996C8.3593 10.127 6.9643 11.15 5.5693 11.15C4.1743 11.15 2.7793 10.127 2.7793 8.35996Z" stroke="black" stroke-width="2.232" stroke-miterlimit="10" stroke-linecap="round"/>
</g>
</g>
</g>
</g>
</svg>
