<svg width="30" height="30" viewBox="0 0 30 30" fill="none" xmlns="http://www.w3.org/2000/svg">
<g id="Calcium Icon">
<g id="Group">
<g id="Group_2">
<g id="Group_3">
<path id="Vector" d="M14.9956 11.786L11.9144 8.70481C12.4954 8.12396 12.8546 7.3214 12.8546 6.43498C12.8546 4.66214 11.4175 3.22498 9.64461 3.22498C7.87177 3.22498 6.43461 4.66214 6.43461 6.43498C4.66177 6.43498 3.22461 7.87214 3.22461 9.64498C3.22461 11.4178 4.66177 12.855 6.43461 12.855C7.32103 12.855 8.1236 12.4957 8.70444 11.9148L11.7856 14.996" stroke="black" stroke-width="2.568" stroke-miterlimit="10" stroke-linecap="round"/>
</g>
<g id="Group_4">
<path id="Vector_2" d="M15.0039 18.215L18.084 21.2951C17.5031 21.876 17.1438 22.6785 17.1438 23.5649C17.1438 25.3378 18.581 26.7749 20.3538 26.7749C22.1267 26.7749 23.5638 25.3378 23.5638 23.5649C25.3367 23.5649 26.7738 22.1278 26.7738 20.3549C26.7738 18.5821 25.3367 17.1449 23.5638 17.1449C22.6774 17.1449 21.8749 17.5042 21.294 18.0851L18.2139 15.005" stroke="black" stroke-width="2.568" stroke-miterlimit="10" stroke-linecap="round"/>
</g>
<g id="Group_5">
<path id="Vector_3" d="M23.5605 6.43998C23.5605 4.66714 22.1233 3.22998 20.3505 3.22998C18.5776 3.22998 17.1405 4.66714 17.1405 6.43998C17.1405 7.3264 17.4997 8.12897 18.0806 8.70981L8.7103 18.0801C8.12939 17.4992 7.32689 17.14 6.44047 17.14C4.66763 17.14 3.23047 18.5771 3.23047 20.35C3.23047 22.1228 4.66763 23.56 6.44047 23.56C6.44047 25.3328 7.87763 26.77 9.65047 26.77C11.4233 26.77 12.8605 25.3328 12.8605 23.56C12.8605 22.6736 12.5012 21.8711 11.9203 21.2901L21.2906 11.9198C21.8715 12.5007 22.674 12.86 23.5605 12.86C25.3333 12.86 26.7705 11.4228 26.7705 9.64998C26.7705 7.87714 25.3333 6.43998 23.5605 6.43998Z" stroke="black" stroke-width="2.568" stroke-miterlimit="10" stroke-linecap="round"/>
</g>
</g>
</g>
</g>
</svg>
