<svg width="28" height="28" viewBox="0 0 28 28" fill="none" xmlns="http://www.w3.org/2000/svg">
<g id="Dietary Fiber Icon">
<g id="Group">
<g id="Group_2">
<g id="Group_3">
<path id="Vector" d="M9 7V10L12 13L12 25" stroke="black" stroke-width="2.4" stroke-miterlimit="10" stroke-linecap="square"/>
</g>
<g id="Group_4">
<path id="Vector_2" d="M5 16L5 19L8 22V25" stroke="black" stroke-width="2.4" stroke-miterlimit="10" stroke-linecap="square"/>
</g>
<g id="Group_5">
<path id="Vector_3" d="M23 16V19L20 22L20 25" stroke="black" stroke-width="2.4" stroke-miterlimit="10" stroke-linecap="square"/>
</g>
<g id="Group_6">
<path id="Vector_4" d="M19 7V10L16 13L16 25" stroke="black" stroke-width="2.4" stroke-miterlimit="10" stroke-linecap="square"/>
</g>
<g id="Group_7">
<path id="Vector_5" d="M5 16C6.10457 16 7 15.1046 7 14C7 12.8954 6.10457 12 5 12C3.89543 12 3 12.8954 3 14C3 15.1046 3.89543 16 5 16Z" stroke="black" stroke-width="2.4" stroke-miterlimit="10" stroke-linecap="square"/>
</g>
<g id="Group_8">
<path id="Vector_6" d="M23 16C24.1046 16 25 15.1046 25 14C25 12.8954 24.1046 12 23 12C21.8954 12 21 12.8954 21 14C21 15.1046 21.8954 16 23 16Z" stroke="black" stroke-width="2.4" stroke-miterlimit="10" stroke-linecap="square"/>
</g>
<g id="Group_9">
<path id="Vector_7" d="M9 7C10.1046 7 11 6.10457 11 5C11 3.89543 10.1046 3 9 3C7.89543 3 7 3.89543 7 5C7 6.10457 7.89543 7 9 7Z" stroke="black" stroke-width="2.4" stroke-miterlimit="10" stroke-linecap="square"/>
</g>
<g id="Group_10">
<path id="Vector_8" d="M19 7C20.1046 7 21 6.10457 21 5C21 3.89543 20.1046 3 19 3C17.8954 3 17 3.89543 17 5C17 6.10457 17.8954 7 19 7Z" stroke="black" stroke-width="2.4" stroke-miterlimit="10" stroke-linecap="square"/>
</g>
</g>
</g>
</g>
</svg>
