<svg width="26" height="26" viewBox="0 0 26 26" fill="none" xmlns="http://www.w3.org/2000/svg">
<g id="Trans Fat Icon">
<g id="Group">
<g id="Group_2">
<g id="Group_3">
<path id="Vector" d="M21.2518 16.2095C19.1918 13.8192 15.7141 13.2505 12.9999 14.8601C10.2858 16.4696 6.8081 15.9009 4.74805 13.5106" stroke="black" stroke-width="2.232" stroke-miterlimit="10" stroke-linecap="round"/>
</g>
<g id="Group_4">
<path id="Vector_2" d="M8.34961 2.79004L17.6496 2.79004" stroke="black" stroke-width="2.232" stroke-miterlimit="10" stroke-linecap="square"/>
</g>
<g id="Group_5">
<path id="Vector_3" d="M10.2097 2.77002V6.97641C6.36634 8.33524 4.06089 12.2653 4.75023 16.2831C5.43957 20.3009 8.9232 23.2377 12.9997 23.2377C17.0762 23.2377 20.5598 20.3009 21.2492 16.2831C21.9385 12.2653 19.633 8.33524 15.7897 6.97641L15.7897 2.77002" stroke="black" stroke-width="2.232" stroke-miterlimit="10" stroke-linecap="round"/>
</g>
<g id="Group_6">
<path id="Vector_4" d="M10.6802 13.005C11.4506 13.005 12.0752 12.3804 12.0752 11.61C12.0752 10.8395 11.4506 10.215 10.6802 10.215C9.90972 10.215 9.28516 10.8395 9.28516 11.61C9.28516 12.3804 9.90972 13.005 10.6802 13.005Z" fill="black"/>
</g>
</g>
</g>
</g>
</svg>
