<svg width="24" height="24" viewBox="0 0 24 24" fill="none" xmlns="http://www.w3.org/2000/svg">
<g id="Order History Icon">
<g id="Group">
<g id="Group_2">
<g id="Group_3">
<path id="Vector" d="M12 5.12012L12 19.7401" stroke="#171A1F" stroke-width="2.064" stroke-miterlimit="10"/>
</g>
<g id="Group_4">
<path id="Vector_2" d="M16.7291 3.3999C14.1491 3.3999 11.9991 4.5179 11.9991 5.9799C11.9991 4.5179 9.84906 3.3999 7.26906 3.3999C4.68906 3.3999 2.53906 4.5179 2.53906 5.9799L2.53906 20.5999C2.53906 19.1379 4.68906 18.0199 7.26906 18.0199C9.84906 18.0199 11.9991 19.1379 11.9991 20.5999C11.9991 19.1379 14.1491 18.0199 16.7291 18.0199C19.3091 18.0199 21.4591 19.1379 21.4591 20.5999L21.4591 5.9799C21.4591 4.5179 19.3091 3.3999 16.7291 3.3999Z" stroke="#171A1F" stroke-width="2.064" stroke-miterlimit="10" stroke-linecap="round"/>
</g>
</g>
</g>
</g>
</svg>
