<svg width="12" height="13" viewBox="0 0 12 13" fill="none" xmlns="http://www.w3.org/2000/svg">
<g id="Apple">
<g id="Group">
<g id="Group_2">
<g id="Group_3">
<path id="Vector" d="M9.87097 8.83075C9.65941 9.29945 9.55836 9.50843 9.28574 9.92295C8.90605 10.5013 8.37027 11.2215 7.70635 11.2276C7.11639 11.2332 6.96503 10.844 6.16437 10.8483C5.36414 10.8526 5.19687 11.2344 4.60691 11.2289C3.94299 11.2228 3.43602 10.5727 3.05547 9.9939C1.99337 8.37624 1.88243 6.47822 2.53775 5.46944C3.00344 4.7522 3.73831 4.33295 4.42932 4.33295C5.1328 4.33295 5.57484 4.71866 6.15663 4.71866C6.72079 4.71866 7.06479 4.33252 7.87792 4.33252C8.49282 4.33252 9.14384 4.66706 9.60824 5.24541C8.08776 6.07875 8.33458 8.24982 9.87097 8.83075Z" stroke="#636AE8" stroke-width="1.032" stroke-miterlimit="10" stroke-linecap="round"/>
</g>
<g id="Group_4">
<path id="Vector_2" d="M7.33266 2.8371C7.61216 2.47848 7.82415 1.97237 7.74718 1.45508C7.29052 1.48647 6.75732 1.77672 6.44557 2.15512C6.16263 2.49869 5.92914 3.00781 6.01987 3.50317C6.51781 3.51865 7.03338 3.22109 7.33266 2.8371Z" fill="#636AE8"/>
</g>
</g>
</g>
</g>
</svg>
