<svg width="12" height="13" viewBox="0 0 12 13" fill="none" xmlns="http://www.w3.org/2000/svg">
<g id="Logo whatsapp">
<g id="Group">
<g id="Group_2">
<g id="Group_3">
<path id="Vector" d="M1.2207 11.3002L1.89579 8.83511C1.47938 8.11373 1.26026 7.29532 1.2606 6.45691C1.26166 3.83405 3.39633 1.7002 6.01918 1.7002C7.29213 1.7007 8.48691 2.19614 9.38531 3.09529C10.2837 3.99444 10.7782 5.18964 10.7777 6.46071C10.7767 9.08358 8.64182 11.2177 6.01924 11.2177H6.01729C5.22086 11.2174 4.43832 11.0177 3.74329 10.6387L1.2207 11.3002ZM3.86016 9.77746L4.00459 9.86316C4.61183 10.2234 5.30792 10.414 6.01761 10.4143H6.01923C8.19918 10.4143 9.97343 8.64058 9.97432 6.46041C9.97472 5.40393 9.56372 4.41053 8.81698 3.66318C8.07025 2.91584 7.0772 2.50402 6.0208 2.50362C3.83918 2.50362 2.06491 4.2772 2.06403 6.45722C2.06373 7.20428 2.27284 7.93189 2.66874 8.56141L2.7628 8.71099L2.36323 10.17L3.86016 9.77746Z" fill="#636AE8"/>
</g>
<g id="Group_4">
<path id="Vector_2" fill-rule="evenodd" clip-rule="evenodd" d="M4.83211 4.46555C4.7356 4.23377 4.63758 4.26513 4.56459 4.2615C4.49532 4.25805 4.41598 4.25732 4.33671 4.25732C4.25745 4.25732 4.12864 4.28707 4.01965 4.40606C3.91067 4.52505 3.60352 4.81262 3.60352 5.39766C3.60352 5.9827 4.02956 6.5479 4.08901 6.62723C4.14846 6.70657 4.92742 7.90715 6.12015 8.42201C6.40382 8.54447 6.6253 8.61759 6.79797 8.6724C7.08281 8.76285 7.34201 8.75009 7.54688 8.71949C7.77531 8.68537 8.25034 8.43194 8.34942 8.15429C8.4485 7.87664 8.4485 7.63865 8.41877 7.58907C8.38906 7.5395 8.30979 7.50975 8.1909 7.45025C8.07199 7.39076 7.48743 7.10319 7.37843 7.06353C7.26945 7.02387 7.19019 7.00404 7.11092 7.12303C7.03166 7.24201 6.8038 7.50975 6.73444 7.58907C6.66509 7.6684 6.59573 7.67832 6.47684 7.61882C6.35793 7.55933 5.97482 7.43381 5.52068 7.02887C5.16723 6.71371 4.92858 6.32444 4.85923 6.20544C4.78987 6.08645 4.85185 6.02211 4.91137 5.96286C4.96485 5.90961 5.03027 5.82404 5.08972 5.75463C5.14916 5.68522 5.16898 5.63564 5.20861 5.55631C5.24825 5.47698 5.22843 5.40757 5.1987 5.34807C5.16898 5.28858 4.9312 4.70353 4.83211 4.46555Z" fill="#636AE8"/>
</g>
</g>
</g>
</g>
</svg>
