<svg width="33" height="32" viewBox="0 0 33 32" fill="none" xmlns="http://www.w3.org/2000/svg">
<g id="Map Icon Default">
<path id="Vector" d="M29.323 7.33756C29.1022 7.18796 28.8214 7.15756 28.5774 7.25676L24.8382 8.75276C24.8566 8.98316 24.8742 9.21436 24.8742 9.45436C24.8742 9.79756 24.8286 10.1496 24.7638 10.5056L28.0742 9.18156L28.0742 23.4584L20.8742 26.3384L13.171 23.2568C12.9806 23.1808 12.7678 23.1808 12.5774 23.2568L5.67422 26.0184L5.67422 11.7416L8.96782 10.424C8.91262 10.096 8.87422 9.77116 8.87422 9.45436C8.87422 9.20396 8.89182 8.96236 8.91182 8.72316L4.57742 10.4568C4.27342 10.5792 4.07422 10.8728 4.07422 11.2L4.07422 27.2C4.07422 27.4656 4.20622 27.7136 4.42542 27.8624C4.55982 27.9536 4.71662 28 4.87422 28C4.97502 28 5.07582 27.9816 5.17102 27.9432L12.8742 24.8616L20.5774 27.9432C20.7678 28.0192 20.9806 28.0192 21.171 27.9432L29.171 24.7432C29.475 24.6208 29.6742 24.3272 29.6742 24L29.6742 7.99996C29.6742 7.73436 29.5422 7.48636 29.323 7.33756Z" fill="#171A1F"/>
<path id="Vector_2" d="M16.8746 3.19995C13.7282 3.19995 10.4746 5.53915 10.4746 9.45435C10.4746 13.0496 15.713 18.3712 16.3098 18.9664C16.4658 19.1224 16.6706 19.2 16.8746 19.2C17.0786 19.2 17.2834 19.1224 17.4394 18.9664C18.0362 18.372 23.2746 13.0496 23.2746 9.45435C23.2746 5.53915 20.021 3.19995 16.8746 3.19995ZM16.8746 12C15.549 12 14.4746 10.9256 14.4746 9.59995C14.4746 8.27435 15.549 7.19995 16.8746 7.19995C18.2002 7.19995 19.2746 8.27435 19.2746 9.59995C19.2746 10.9256 18.2002 12 16.8746 12Z" fill="#171A1F"/>
</g>
</svg>
