<svg width="24" height="24" viewBox="0 0 24 24" fill="none" xmlns="http://www.w3.org/2000/svg">
<g id="Party Icon">
<g id="Group">
<g id="Group_2">
<g id="Group_3">
<path id="Vector" d="M3.41016 20.5899L7.71016 7.68994L16.3102 16.2899L3.41016 20.5899Z" stroke="#171A1F" stroke-width="2.064" stroke-miterlimit="10" stroke-linecap="square"/>
</g>
<g id="Group_4">
<path id="Vector_2" d="M10.2793 5.99992L11.1393 3.41992" stroke="#171A1F" stroke-width="2.064" stroke-linecap="square" stroke-linejoin="round"/>
</g>
<g id="Group_5">
<path id="Vector_3" d="M18 13.7199L20.58 12.8599" stroke="#171A1F" stroke-width="2.064" stroke-linecap="square" stroke-linejoin="round"/>
</g>
<g id="Group_6">
<path id="Vector_4" d="M16.2903 6.00982C15.3404 6.00982 14.5703 5.23975 14.5703 4.28982C14.5703 3.33989 15.3404 2.56982 16.2903 2.56982C17.2402 2.56982 18.0103 3.33989 18.0103 4.28982C18.0103 5.23975 17.2402 6.00982 16.2903 6.00982Z" stroke="#171A1F" stroke-width="2.064" stroke-linecap="round" stroke-linejoin="round"/>
</g>
<g id="Group_7">
<path id="Vector_5" d="M21.4393 4.27979C21.4393 7.12957 19.1291 9.43978 16.2793 9.43978" stroke="#171A1F" stroke-width="2.064" stroke-linecap="round" stroke-linejoin="round"/>
</g>
<g id="Group_8">
<path id="Vector_6" d="M5.78906 13.4595L7.68966 19.1604" stroke="#171A1F" stroke-width="2.064" stroke-miterlimit="10"/>
</g>
<g id="Group_9">
<path id="Vector_7" d="M8.38477 8.37549L11.5539 17.8845" stroke="#171A1F" stroke-width="2.064" stroke-miterlimit="10"/>
</g>
</g>
</g>
</g>
</svg>
