<svg width="16" height="16" viewBox="0 0 16 16" fill="none" xmlns="http://www.w3.org/2000/svg">
<g id="Rating Star Icon Empty">
<path id="Vector" d="M7.49016 1.46704C7.67849 1.01424 8.31996 1.01424 8.50829 1.46705L10.0574 5.19144C10.1368 5.38234 10.3163 5.51276 10.5224 5.52929L14.5432 5.85163C15.032 5.89082 15.2302 6.50088 14.8578 6.8199L11.7944 9.4441C11.6374 9.57856 11.5688 9.78963 11.6168 9.9907L12.5527 13.9143C12.6665 14.3914 12.1475 14.7684 11.729 14.5128L8.28663 12.4102C8.11023 12.3024 7.88829 12.3024 7.71189 12.4102L4.26949 14.5128C3.85098 14.7684 3.33203 14.3914 3.44582 13.9143L4.38175 9.9907C4.42972 9.78963 4.36115 9.57856 4.20413 9.4441L1.14071 6.8199C0.768259 6.50088 0.966479 5.89082 1.45533 5.85163L5.47613 5.52929C5.68221 5.51276 5.86173 5.38234 5.94113 5.19144L7.49016 1.46704Z" fill="url(#paint0_linear_27_888)"/>
</g>
<defs>
<linearGradient id="paint0_linear_27_888" x1="0.947266" y1="1.12744" x2="15.0512" y2="1.12744" gradientUnits="userSpaceOnUse">
<stop offset="0.4999" stop-color="#DEE1E6"/>
<stop offset="0.5" stop-color="#DEE1E6"/>
</linearGradient>
</defs>
</svg>
