<svg width="16" height="16" viewBox="0 0 16 16" fill="none" xmlns="http://www.w3.org/2000/svg">
<g id="Order Again Icon">
<g id="Group">
<g id="Group_2">
<g id="Group_3">
<path id="Vector" d="M3.44141 3.43994L13.7014 3.43994L11.9914 9.13994L3.44141 9.13994" stroke="#171A1F" stroke-width="1.368" stroke-miterlimit="10" stroke-linecap="square"/>
</g>
<g id="Group_4">
<path id="Vector_2" d="M3.43102 14.8503C4.06062 14.8503 4.57102 14.3399 4.57102 13.7103C4.57102 13.0807 4.06062 12.5703 3.43102 12.5703C2.80141 12.5703 2.29102 13.0807 2.29102 13.7103C2.29102 14.3399 2.80141 14.8503 3.43102 14.8503Z" fill="#171A1F"/>
</g>
<g id="Group_5">
<path id="Vector_3" d="M12.5697 14.8503C13.1993 14.8503 13.7097 14.3399 13.7097 13.7103C13.7097 13.0807 13.1993 12.5703 12.5697 12.5703C11.9401 12.5703 11.4297 13.0807 11.4297 13.7103C11.4297 14.3399 11.9401 14.8503 12.5697 14.8503Z" fill="#171A1F"/>
</g>
<g id="Group_6">
<path id="Vector_4" d="M1.73047 1.7251L3.44047 3.4351L3.44047 9.1351L2.30047 11.4151L14.2705 11.4151" stroke="#171A1F" stroke-width="1.368" stroke-miterlimit="10"/>
</g>
</g>
</g>
</g>
</svg>
