<svg width="16" height="16" viewBox="0 0 16 16" fill="none" xmlns="http://www.w3.org/2000/svg">
<g id="Shopping cart">
<g id="Group">
<g id="Group_2">
<g id="Group_3">
<path id="Vector" d="M4.57 14.2801C4.8848 14.2801 5.14 14.0249 5.14 13.7101C5.14 13.3953 4.8848 13.1401 4.57 13.1401C4.2552 13.1401 4 13.3953 4 13.7101C4 14.0249 4.2552 14.2801 4.57 14.2801Z" fill="#9095A0"/>
</g>
<g id="Group_4">
<path id="Vector_2" d="M12.57 14.2801C12.8848 14.2801 13.14 14.0249 13.14 13.7101C13.14 13.3953 12.8848 13.1401 12.57 13.1401C12.2552 13.1401 12 13.3953 12 13.7101C12 14.0249 12.2552 14.2801 12.57 14.2801Z" fill="#9095A0"/>
</g>
<g id="Group_5">
<path id="Vector_3" d="M4.57 14.2801C4.8848 14.2801 5.14 14.0249 5.14 13.7101C5.14 13.3953 4.8848 13.1401 4.57 13.1401C4.2552 13.1401 4 13.3953 4 13.7101C4 14.0249 4.2552 14.2801 4.57 14.2801Z" stroke="#9095A0" stroke-width="1.368" stroke-miterlimit="10" stroke-linecap="square"/>
</g>
<g id="Group_6">
<path id="Vector_4" d="M12.57 14.2801C12.8848 14.2801 13.14 14.0249 13.14 13.7101C13.14 13.3953 12.8848 13.1401 12.57 13.1401C12.2552 13.1401 12 13.3953 12 13.7101C12 14.0249 12.2552 14.2801 12.57 14.2801Z" stroke="#9095A0" stroke-width="1.368" stroke-miterlimit="10" stroke-linecap="square"/>
</g>
<g id="Group_7">
<path id="Vector_5" d="M3.89061 5.14492L13.6946 5.14492L12.7381 9.92836C12.6316 10.4613 12.1636 10.8449 11.6204 10.8449L5.57268 10.8449C5.00154 10.8449 4.51818 10.422 4.44294 9.8554L3.43461 2.29492L1.72461 2.29492" stroke="#9095A0" stroke-width="1.368" stroke-miterlimit="10" stroke-linecap="round"/>
</g>
</g>
</g>
</g>
</svg>
