<svg width="33" height="32" viewBox="0 0 33 32" fill="none" xmlns="http://www.w3.org/2000/svg">
<g id="Cart Icon Default">
<path id="Vector" d="M8.07578 28.0002C9.40126 28.0002 10.4758 26.9257 10.4758 25.6002C10.4758 24.2747 9.40126 23.2002 8.07578 23.2002C6.7503 23.2002 5.67578 24.2747 5.67578 25.6002C5.67578 26.9257 6.7503 28.0002 8.07578 28.0002Z" stroke="#171A1F" stroke-width="1.92" stroke-miterlimit="10" stroke-linecap="square"/>
<path id="Vector_2" d="M25.6754 28.0002C27.0009 28.0002 28.0754 26.9257 28.0754 25.6002C28.0754 24.2747 27.0009 23.2002 25.6754 23.2002C24.3499 23.2002 23.2754 24.2747 23.2754 25.6002C23.2754 26.9257 24.3499 28.0002 25.6754 28.0002Z" stroke="#171A1F" stroke-width="1.92" stroke-miterlimit="10" stroke-linecap="square"/>
<path id="Vector_3" d="M4.875 4L7.275 7.2L7.275 16.8L5.675 20L28.875 20" stroke="#171A1F" stroke-width="1.92" stroke-miterlimit="10"/>
<path id="Vector_4" d="M7.27539 7.2002L27.2754 7.2002L23.2754 16.8002L7.27539 16.8002" stroke="#171A1F" stroke-width="1.92" stroke-miterlimit="10" stroke-linecap="square"/>
</g>
</svg>
