<svg width="33" height="32" viewBox="0 0 33 32" fill="none" xmlns="http://www.w3.org/2000/svg">
<g id="List Icon Selected">
<path id="Vector" d="M6.47422 10.4001C7.7997 10.4001 8.87422 9.32558 8.87422 8.0001C8.87422 6.67461 7.7997 5.6001 6.47422 5.6001C5.14874 5.6001 4.07422 6.67461 4.07422 8.0001C4.07422 9.32558 5.14874 10.4001 6.47422 10.4001Z" fill="#636AE8"/>
<path id="Vector_2" d="M28.8742 8.8002L12.8742 8.8002C12.4324 8.8002 12.0742 8.442 12.0742 8.0002C12.0742 7.5584 12.4324 7.2002 12.8742 7.2002L28.8742 7.2002C29.316 7.2002 29.6742 7.5584 29.6742 8.0002C29.6742 8.442 29.316 8.8002 28.8742 8.8002Z" fill="#636AE8"/>
<path id="Vector_3" d="M6.47422 18.4001C7.7997 18.4001 8.87422 17.3256 8.87422 16.0001C8.87422 14.6746 7.7997 13.6001 6.47422 13.6001C5.14874 13.6001 4.07422 14.6746 4.07422 16.0001C4.07422 17.3256 5.14874 18.4001 6.47422 18.4001Z" fill="#636AE8"/>
<path id="Vector_4" d="M28.8742 16.8002L12.8742 16.8002C12.4324 16.8002 12.0742 16.442 12.0742 16.0002C12.0742 15.5584 12.4324 15.2002 12.8742 15.2002L28.8742 15.2002C29.316 15.2002 29.6742 15.5584 29.6742 16.0002C29.6742 16.442 29.316 16.8002 28.8742 16.8002Z" fill="#636AE8"/>
<path id="Vector_5" d="M6.47422 26.4001C7.7997 26.4001 8.87422 25.3256 8.87422 24.0001C8.87422 22.6746 7.7997 21.6001 6.47422 21.6001C5.14874 21.6001 4.07422 22.6746 4.07422 24.0001C4.07422 25.3256 5.14874 26.4001 6.47422 26.4001Z" fill="#636AE8"/>
<path id="Vector_6" d="M28.8742 24.8002L12.8742 24.8002C12.4324 24.8002 12.0742 24.4424 12.0742 24.0002C12.0742 23.558 12.4324 23.2002 12.8742 23.2002L28.8742 23.2002C29.316 23.2002 29.6742 23.558 29.6742 24.0002C29.6742 24.4424 29.316 24.8002 28.8742 24.8002Z" fill="#636AE8"/>
</g>
</svg>
