<svg width="24" height="24" viewBox="0 0 24 24" fill="none" xmlns="http://www.w3.org/2000/svg">
<g id="Account Settings Icon">
<g id="Group">
<g id="Group_2">
<g id="Group_3">
<path id="Vector" d="M21.4591 12C21.4591 11.0497 20.6894 10.28 19.7391 10.28H18.6537C18.4912 9.65052 18.2435 9.05712 17.921 8.51016L18.6881 7.74304C19.3598 7.07138 19.3598 5.98262 18.6881 5.31096C18.0165 4.6393 16.9277 4.6393 16.2561 5.31096L15.4889 6.07808C14.942 5.75558 14.3486 5.5079 13.7191 5.34536V4.26004C13.7191 3.3106 12.9494 2.54004 11.9991 2.54004C11.0488 2.54004 10.2791 3.30974 10.2791 4.26004V5.34536C9.64954 5.5079 9.05614 5.75558 8.50918 6.07808L7.74206 5.31096C7.0704 4.6393 5.98164 4.6393 5.30998 5.31096C4.63832 5.98262 4.63832 7.07138 5.30998 7.74304L6.0771 8.51016C5.7546 9.05712 5.50692 9.65052 5.34438 10.28H4.25906C3.30962 10.28 2.53906 11.0497 2.53906 12C2.53906 12.9503 3.30876 13.72 4.25906 13.72H5.34438C5.50692 14.3496 5.7546 14.943 6.0771 15.4899L5.30998 16.257C4.63832 16.9287 4.63832 18.0175 5.30998 18.6891C5.98164 19.3608 7.0704 19.3608 7.74206 18.6891L8.50918 17.922C9.05528 18.2445 9.64954 18.4922 10.2791 18.6547V19.74C10.2791 20.6895 11.0488 21.46 11.9991 21.46C12.9494 21.46 13.7191 20.6903 13.7191 19.74V18.6547C14.3486 18.4922 14.942 18.2445 15.4889 17.922L16.2561 18.6891C16.9277 19.3608 18.0165 19.3608 18.6881 18.6891C19.3598 18.0175 19.3598 16.9287 18.6881 16.257L17.921 15.4899C18.2435 14.9438 18.4912 14.3496 18.6537 13.72H19.7391C20.6885 13.72 21.4591 12.9503 21.4591 12Z" stroke="#171A1F" stroke-width="2.064" stroke-miterlimit="10" stroke-linecap="round"/>
</g>
<g id="Group_4">
<path id="Vector_2" d="M11.9999 14.5799C13.4248 14.5799 14.5799 13.4248 14.5799 11.9999C14.5799 10.575 13.4248 9.41992 11.9999 9.41992C10.575 9.41992 9.41992 10.575 9.41992 11.9999C9.41992 13.4248 10.575 14.5799 11.9999 14.5799Z" stroke="#171A1F" stroke-width="2.064" stroke-miterlimit="10" stroke-linecap="square"/>
</g>
</g>
</g>
</g>
</svg>
