<svg width="36" height="36" viewBox="0 0 36 36" fill="none" xmlns="http://www.w3.org/2000/svg">
<g id="Cart Empty Message Icon">
<g id="Group">
<g id="Group_2">
<g id="Group_3">
<path id="Vector" d="M8.10039 31.5001C9.59156 31.5001 10.8004 30.2913 10.8004 28.8001C10.8004 27.3089 9.59156 26.1001 8.10039 26.1001C6.60922 26.1001 5.40039 27.3089 5.40039 28.8001C5.40039 30.2913 6.60922 31.5001 8.10039 31.5001Z" stroke="#171A1F" stroke-width="2.16" stroke-miterlimit="10" stroke-linecap="square"/>
</g>
<g id="Group_4">
<path id="Vector_2" d="M27.8992 31.5001C29.3904 31.5001 30.5992 30.2913 30.5992 28.8001C30.5992 27.3089 29.3904 26.1001 27.8992 26.1001C26.408 26.1001 25.1992 27.3089 25.1992 28.8001C25.1992 30.2913 26.408 31.5001 27.8992 31.5001Z" stroke="#171A1F" stroke-width="2.16" stroke-miterlimit="10" stroke-linecap="square"/>
</g>
<g id="Group_5">
<path id="Vector_3" d="M4.5 4.5L7.2 8.1L7.2 18.9L5.4 22.5L31.5 22.5" stroke="#171A1F" stroke-width="2.16" stroke-miterlimit="10"/>
</g>
<g id="Group_6">
<path id="Vector_4" d="M7.19922 8.1001L29.6992 8.1001L25.1992 18.9001L7.19922 18.9001" stroke="#171A1F" stroke-width="2.16" stroke-miterlimit="10" stroke-linecap="square"/>
</g>
</g>
</g>
</g>
</svg>
