<svg width="33" height="32" viewBox="0 0 33 32" fill="none" xmlns="http://www.w3.org/2000/svg">
<g id="Cart Icon Selected">
<path id="Vector" d="M7.57578 28.0002C8.90126 28.0002 9.97578 26.9257 9.97578 25.6002C9.97578 24.2747 8.90126 23.2002 7.57578 23.2002C6.2503 23.2002 5.17578 24.2747 5.17578 25.6002C5.17578 26.9257 6.2503 28.0002 7.57578 28.0002Z" stroke="#636AE8" stroke-width="1.92" stroke-miterlimit="10" stroke-linecap="square"/>
<path id="Vector_2" d="M25.1754 28.0002C26.5009 28.0002 27.5754 26.9257 27.5754 25.6002C27.5754 24.2747 26.5009 23.2002 25.1754 23.2002C23.8499 23.2002 22.7754 24.2747 22.7754 25.6002C22.7754 26.9257 23.8499 28.0002 25.1754 28.0002Z" stroke="#636AE8" stroke-width="1.92" stroke-miterlimit="10" stroke-linecap="square"/>
<path id="Vector_3" d="M4.375 4L6.775 7.2L6.775 16.8L5.175 20L28.375 20" stroke="#636AE8" stroke-width="1.92" stroke-miterlimit="10"/>
<path id="Vector_4" d="M6.77539 7.2002L26.7754 7.2002L22.7754 16.8002L6.77539 16.8002" stroke="#636AE8" stroke-width="1.92" stroke-miterlimit="10" stroke-linecap="square"/>
</g>
</svg>
